# xmcd
#
# Track frame offsets: 
#        150
#        13537
#        28387
#        41061
#        55037
#        68056
#        79936
#        93419
#        107801
#        116238
#        128051
#        142114
#
# Disc length: 2038 seconds
#
# Revision: 0
# Processed by: cddbd v1.5.2PL0 Copyright (c) Steve Scherf et al.
# Submitted via: ExactAudioCopy v1.3
#
DISCID=a907f40c
DTITLE=Charlie Rich - So Lonesome I Could Cry (FPH1349-2)
DYEAR=2015
DGENRE=Country
TTITLE0=My Heart Would Know
TTITLE1=Take These Chains
TTITLE2=Half As Much
TTITLE3=You Win Again
TTITLE4=I Can't Help It
TTITLE5=Hey Good Looking
TTITLE6=Your Cheating Heart
TTITLE7=Cold, Cold Heart
TTITLE8=Nobody's Lonesome For Me
TTITLE9=I'm So Lonesome I Could Cry
TTITLE10=Wedding Bells
TTITLE11=They'll Never Take Her Love From Me
EXTD=
EXTT0=
EXTT1=
EXTT2=
EXTT3=
EXTT4=
EXTT5=
EXTT6=
EXTT7=
EXTT8=
EXTT9=
EXTT10=
EXTT11=
PLAYORDER=
